HIERARCHY
ROOT hip
{
  OFFSET 0 0 0
  CHANNELS 6 Xposition Yposition Zposition Zrotation Yrotation Xrotation
  JOINT abdomen
  {
    OFFSET 0 20.6881 -0.73152
    CHANNELS 3 Zrotation Xrotation Yrotation
    JOINT chest
    {
      OFFSET 0 11.7043 -0.48768
      CHANNELS 3 Zrotation Xrotation Yrotation
      JOINT neck
      {
        OFFSET 0 22.1894 -2.19456
        CHANNELS 3 Zrotation Xrotation Yrotation
        JOINT head
        {
          OFFSET -0.24384 7.07133 1.2192
          CHANNELS 3 Zrotation Xrotation Yrotation
          JOINT leftEye
          {
            OFFSET 4.14528 8.04674 8.04672
            CHANNELS 3 Zrotation Xrotation Yrotation
            End Site
            {
              OFFSET 1 0 0
            }
          }
          JOINT rightEye
          {
            OFFSET -3.6576 8.04674 8.04672
            CHANNELS 3 Zrotation Xrotation Yrotation
            End Site
            {
              OFFSET 1 0 0
            }
          }
        }
      }
      JOINT rCollar
      {
        OFFSET -2.68224 19.2634 -4.8768
        CHANNELS 3 Zrotation Xrotation Yrotation
        JOINT rShldr
        {
          OFFSET -8.77824 -1.95073 1.46304
          CHANNELS 3 Zrotation Xrotation Yrotation
          JOINT rForeArm
          {
            OFFSET -28.1742 -1.7115 0.48768
            CHANNELS 3 Zrotation Xrotation Yrotation
            JOINT rHand
            {
              OFFSET -22.5879 0.773209 7.07136
              CHANNELS 3 Zrotation Xrotation Yrotation
              JOINT rThumb1
              {
                OFFSET -1.2192 -0.487915 3.41376
                CHANNELS 3 Zrotation Xrotation Yrotation
                JOINT rThumb2
                {
                  OFFSET -3.37035 -0.52449 3.41376
                  CHANNELS 3 Zrotation Xrotation Yrotation
                  End Site
                  {
                    OFFSET -1.78271 -1.18214 1.43049
                  }
                }
              }
              JOINT rIndex1
              {
                OFFSET -7.75947 0.938293 5.60832
                CHANNELS 3 Zrotation Xrotation Yrotation
                JOINT rIndex2
                {
                  OFFSET -2.54057 -0.884171 1.56538
                  CHANNELS 3 Zrotation Xrotation Yrotation
                  End Site
                  {
                    OFFSET -1.62519 -0.234802 1.16502
                  }
                }
              }
              JOINT rMid1
              {
                OFFSET -8.24714 1.18213 3.41376
                CHANNELS 3 Zrotation Xrotation Yrotation
                JOINT rMid2
                {
                  OFFSET -3.10165 -0.590103 1.0647
                  CHANNELS 3 Zrotation Xrotation Yrotation
                  End Site
                  {
                    OFFSET -2.48547 -0.328903 0.83742
                  }
                }
              }
              JOINT rRing1
              {
                OFFSET -8.82822 0.546677 1.51678
                CHANNELS 3 Zrotation Xrotation Yrotation
                JOINT rRing2
                {
                  OFFSET -2.60934 -0.819778 -0.0198488
                  CHANNELS 3 Zrotation Xrotation Yrotation
                  End Site
                  {
                    OFFSET -2.33842 -0.294052 0.168128
                  }
                }
              }
              JOINT rPinky1
              {
                OFFSET -8.27202 -0.0477905 -0.4584
                CHANNELS 3 Zrotation Xrotation Yrotation
                JOINT rPinky2
                {
                  OFFSET -1.82734 -0.647385 -0.700984
                  CHANNELS 3 Zrotation Xrotation Yrotation
                  End Site
                  {
                    OFFSET -1.69225 -0.51767 -0.607171
                  }
                }
              }
            }
          }
        }
      }
      JOINT lCollar
      {
        OFFSET 2.68224 19.2634 -4.8768
        CHANNELS 3 Zrotation Xrotation Yrotation
        JOINT lShldr
        {
          OFFSET 8.77824 -1.95073 1.46304
          CHANNELS 3 Zrotation Xrotation Yrotation
          JOINT lForeArm
          {
            OFFSET 28.1742 -1.7115 0.48768
            CHANNELS 3 Zrotation Xrotation Yrotation
            JOINT lHand
            {
              OFFSET 22.5879 0.773209 7.07136
              CHANNELS 3 Zrotation Xrotation Yrotation
              JOINT lThumb1
              {
                OFFSET 1.2192 -0.487915 3.41376
                CHANNELS 3 Zrotation Xrotation Yrotation
                JOINT lThumb2
                {
                  OFFSET 3.37035 -0.52449 3.41376
                  CHANNELS 3 Zrotation Xrotation Yrotation
                  End Site
                  {
                    OFFSET 1.78271 -1.18214 1.43049
                  }
                }
              }
              JOINT lIndex1
              {
                OFFSET 7.75947 0.938293 5.60832
                CHANNELS 3 Zrotation Xrotation Yrotation
                JOINT lIndex2
                {
                  OFFSET 2.54057 -0.884171 1.56538
                  CHANNELS 3 Zrotation Xrotation Yrotation
                  End Site
                  {
                    OFFSET 1.62519 -0.234802 1.16502
                  }
                }
              }
              JOINT lMid1
              {
                OFFSET 8.24714 1.18213 3.41376
                CHANNELS 3 Zrotation Xrotation Yrotation
                JOINT lMid2
                {
                  OFFSET 3.10165 -0.590103 1.0647
                  CHANNELS 3 Zrotation Xrotation Yrotation
                  End Site
                  {
                    OFFSET 2.48547 -0.328903 0.83742
                  }
                }
              }
              JOINT lRing1
              {
                OFFSET 8.82822 0.546677 1.51678
                CHANNELS 3 Zrotation Xrotation Yrotation
                JOINT lRing2
                {
                  OFFSET 2.60934 -0.819778 -0.0198488
                  CHANNELS 3 Zrotation Xrotation Yrotation
                  End Site
                  {
                    OFFSET 2.33842 -0.294052 0.168128
                  }
                }
              }
              JOINT lPinky1
              {
                OFFSET 8.27202 -0.0477905 -0.4584
                CHANNELS 3 Zrotation Xrotation Yrotation
                JOINT lPinky2
                {
                  OFFSET 1.82734 -0.647385 -0.700984
                  CHANNELS 3 Zrotation Xrotation Yrotation
                  End Site
                  {
                    OFFSET 1.69225 -0.51767 -0.607171
                  }
                }
              }
            }
          }
        }
      }
    }
  }
  JOINT rButtock
  {
    OFFSET -8.77824 4.35084 1.2192
    CHANNELS 3 Zrotation Xrotation Yrotation
    JOINT rThigh
    {
      OFFSET 0 -1.70687 -2.19456
      CHANNELS 3 Zrotation Xrotation Yrotation
      JOINT rShin
      {
        OFFSET 0 -36.8199 0.73152
        CHANNELS 3 Zrotation Xrotation Yrotation
        JOINT rFoot
        {
          OFFSET 0.73152 -45.1104 -5.12064
          CHANNELS 3 Zrotation Xrotation Yrotation
          End Site
          {
            OFFSET -1.1221 -3.69964 12.103
          }
        }
      }
    }
  }
  JOINT lButtock
  {
    OFFSET 8.77824 4.35084 1.2192
    CHANNELS 3 Zrotation Xrotation Yrotation
    JOINT lThigh
    {
      OFFSET 0 -1.70687 -2.19456
      CHANNELS 3 Zrotation Xrotation Yrotation
      JOINT lShin
      {
        OFFSET 0 -36.8199 0.73152
        CHANNELS 3 Zrotation Xrotation Yrotation
        JOINT lFoot
        {
          OFFSET -0.73152 -45.1104 -5.12064
          CHANNELS 3 Zrotation Xrotation Yrotation
          End Site
          {
            OFFSET 1.1221 -3.69964 12.103
          }
        }
      }
    }
  }
}
MOTION
Frames:	4
Frame Time:	0.03333
-0.23030000738799572 61.78159713745117 1.8699999898672104 4.621608257293701 61.43029022216797 17.955387115478516 -11.441208839416504 21.28240203857422 -1.7615785598754883 3.686368703842163 -14.213485717773438 -0.4467369616031647 -9.881192207336426 20.0382022857666 -16.25140380859375 23.602991104125977 -34.19000244140625 -26.15740203857422 -0.0 0.0 -0.0 -0.0 0.0 -0.0 -0.0 0.0 0.0 33.686004638671875 18.752700805664062 30.42290496826172 -27.270200729370117 -43.257301330566406 89.97380828857422 -0.6904840469360352 -22.913171768188477 -3.406088352203369 -0.0 0.0 -0.0 -0.0 0.0 -0.0 -0.0 0.0 -0.0 7.730902194976807 5.47491455078125 0.4173222780227661 -0.0 0.0 -0.0 2.905566453933716 0.9650754332542419 0.10300818830728531 -0.0 0.0 -0.0 10.278596878051758 0.7318810820579529 0.026273518800735474 -0.0 0.0 -0.0 2.221662998199463 -0.7334509491920471 -0.20832103490829468 -0.0 0.0 0.0 -51.148704528808594 49.58460235595703 -20.34861183166504 27.150209426879883 -43.59939956665039 -90.65431213378906 0.19057251513004303 -12.345810890197754 1.76187264919281 0.0 0.0 -0.0 0.0 0.0 -0.0 0.0 0.0 -0.0 -7.730902194976807 5.47491455078125 -0.4173222780227661 0.0 0.0 -0.0 -2.905566453933716 0.9650754332542419 -0.10300818830728531 0.0 0.0 -0.0 -10.278596878051758 0.7318810820579529 -0.026273518800735474 0.0 0.0 -0.0 -2.221662998199463 -0.7334509491920471 0.20832103490829468 -0.0 0.0 -0.0 -45.510257720947266 -66.43002319335938 -39.50814437866211 -4.483251094818115 79.47962951660156 5.430673122406006 -4.148306846618652 -9.615851402282715 -14.147110939025879 0.0 0.0 0.0 34.007816314697266 -39.08918380737305 13.640653610229492 1.4420655965805054 69.40911102294922 -3.5352590084075928 1.4993590116500854 -0.5565690398216248 21.42759895324707
-0.48190001398324966 63.13380002975464 3.783000074326992 2.2519052028656006 62.1431999206543 15.799694061279297 -11.424312591552734 21.28489875793457 -1.3686884641647339 4.45058012008667 -14.192398071289062 -0.25359025597572327 -10.046098709106445 20.079498291015625 -16.293397903442383 23.67140007019043 -34.34380340576172 -26.2266902923584 -0.0 0.0 -0.0 -0.0 0.0 -0.0 -0.0 0.0 0.0 30.97690200805664 18.118785858154297 31.19780921936035 -27.032793045043945 -43.926910400390625 91.29930114746094 -0.7133318781852722 -23.264699935913086 -3.464137077331543 -0.0 0.0 -0.0 -0.0 0.0 -0.0 -0.0 0.0 -0.0 7.730902194976807 5.47491455078125 0.4173222780227661 -0.0 0.0 -0.0 2.905566453933716 0.9650754332542419 0.10300818830728531 -0.0 0.0 -0.0 10.278596878051758 0.7318810820579529 0.026273518800735474 -0.0 0.0 -0.0 2.221662998199463 -0.7334509491920471 -0.20832103490829468 -0.0 0.0 0.0 -54.667205810546875 48.70500183105469 -15.909499168395996 27.140398025512695 -43.6276969909668 -90.70939636230469 0.25956690311431885 -14.734862327575684 2.1163549423217773 -0.0 -0.0 -0.0 -0.0 -0.0 -0.0 -0.0 -0.0 -0.0 -7.730902194976807 5.47491455078125 -0.4173222780227661 -0.0 -0.0 -0.0 -2.905566453933716 0.9650754332542419 -0.10300818830728531 -0.0 -0.0 -0.0 -10.278596878051758 0.7318810820579529 -0.026273518800735474 -0.0 -0.0 -0.0 -2.221662998199463 -0.7334509491920471 0.20832103490829468 -0.0 0.0 -0.0 -37.20490264892578 -65.25819396972656 -33.72440719604492 -3.516651153564453 77.3089828491211 4.470964431762695 -4.543700218200684 -9.58240032196045 -15.507492065429688 0.0 0.0 0.0 32.68778991699219 -42.401710510253906 12.02677059173584 1.997646450996399 72.96781921386719 -3.934584617614746 1.7756428718566895 -2.0416791439056396 17.80159568786621
-0.7552000228315592 64.30659890174866 5.823000147938728 -0.5182186365127563 63.076499938964844 13.005111694335938 -11.010895729064941 21.664907455444336 -1.3655279874801636 4.699841022491455 -14.184691429138184 -0.22240206599235535 -10.037206649780273 20.04329490661621 -16.31218910217285 24.01919174194336 -34.31479263305664 -26.180103302001953 -0.0 0.0 -0.0 -0.0 0.0 -0.0 -0.0 0.0 -0.0 28.612390518188477 17.195514678955078 31.526891708374023 -26.797704696655273 -44.535701751708984 92.51689910888672 -0.6259679794311523 -21.887937545776367 -3.236396074295044 0.0 0.0 -0.0 0.0 0.0 -0.0 0.0 0.0 -0.0 7.730902194976807 5.47491455078125 0.4173222780227661 0.0 0.0 -0.0 2.905566453933716 0.9650754332542419 0.10300818830728531 0.0 0.0 -0.0 10.278596878051758 0.7318810820579529 0.026273518800735474 0.0 0.0 -0.0 2.221662998199463 -0.7334509491920471 -0.20832103490829468 -0.0 0.0 -0.0 -56.94880294799805 47.44559860229492 -12.002201080322266 27.142396926879883 -43.61989974975586 -90.69670104980469 0.2607649266719818 -14.385547637939453 2.066042423248291 -0.0 -0.0 -0.0 -0.0 -0.0 -0.0 -0.0 -0.0 -0.0 -7.730902194976807 5.47491455078125 -0.4173222780227661 -0.0 -0.0 -0.0 -2.905566453933716 0.9650754332542419 -0.10300818830728531 -0.0 -0.0 -0.0 -10.278596878051758 0.7318810820579529 -0.026273518800735474 -0.0 -0.0 -0.0 -2.221662998199463 -0.7334509491920471 0.20832103490829468 -0.0 0.0 -0.0 -29.72658920288086 -63.52349090576172 -29.054798126220703 -2.892061471939087 75.17857360839844 3.828822135925293 -4.8899078369140625 -9.512408256530762 -16.715002059936523 0.0 0.0 0.0 31.73295021057129 -46.41707229614258 12.802911758422852 3.400303602218628 78.22697448730469 -5.2101216316223145 2.8280913829803467 -3.9831907749176025 18.662900924682617
-1.0118000209331512 65.40189981460571 8.07000007480383 -3.8381311893463135 64.06880950927734 9.625920295715332 -10.423394203186035 21.945201873779297 -1.3663989305496216 4.921144008636475 -14.111994743347168 -0.19193072617053986 -9.939669609069824 20.04449462890625 -16.37289047241211 24.42820167541504 -34.027000427246094 -26.234106063842773 -0.0 0.0 -0.0 -0.0 0.0 -0.0 -0.0 -0.0 -0.0 26.47039794921875 16.056110382080078 31.064899444580078 -26.554994583129883 -45.111595153808594 93.69010162353516 -0.5405066013336182 -20.684770584106445 -3.039013147354126 -0.0 0.0 -0.0 -0.0 0.0 -0.0 -0.0 0.0 -0.0 7.730902194976807 5.47491455078125 0.4173222780227661 -0.0 0.0 -0.0 2.905566453933716 0.9650754332542419 0.10300818830728531 -0.0 0.0 -0.0 10.278596878051758 0.7318810820579529 0.026273518800735474 -0.0 0.0 -0.0 2.221662998199463 -0.7334509491920471 -0.20832103490829468 -0.0 -0.0 -0.0 -58.03190231323242 46.306297302246094 -9.054978370666504 27.17479705810547 -43.528995513916016 -90.51588439941406 0.2091924548149109 -12.919400215148926 1.8474534749984741 -0.0 -0.0 -0.0 -0.0 -0.0 -0.0 -0.0 -0.0 -0.0 -7.730902194976807 5.47491455078125 -0.4173222780227661 -0.0 -0.0 -0.0 -2.905566453933716 0.9650754332542419 -0.10300818830728531 -0.0 -0.0 -0.0 -10.278596878051758 0.7318810820579529 -0.026273518800735474 -0.0 -0.0 -0.0 -2.221662998199463 -0.7334509491920471 0.20832103490829468 -0.0 0.0 -0.0 -22.907785415649414 -61.43309783935547 -25.429485321044922 -2.419528007507324 73.01911163330078 3.3152778148651123 -5.073307514190674 -9.307126998901367 -17.47529411315918 0.0 0.0 0.0 31.254051208496094 -50.6729736328125 15.255561828613281 7.54039192199707 83.808837890625 -9.212642669677734 4.201320648193359 -6.164745330810547 20.151805877685547
